{
    "asset" : {
        "generator" : "Khronos glTF Blender I/O v3.3.27",
        "version" : "2.0"
    },
    "extensionsUsed" : [
        "KHR_materials_specular",
        "KHR_materials_ior"
    ],
    "scene" : 0,
    "scenes" : [
        {
            "name" : "Scene",
            "nodes" : [
                0
            ]
        }
    ],
    "nodes" : [
        {
            "mesh" : 0,
            "name" : "Cube"
        }
    ],
    "materials" : [
        {
            "doubleSided" : true,
            "name" : "MainLivery",
            "pbrMetallicRoughness" : {
                "baseColorTexture" : {
                    "index" : 0
                },
                "metallicFactor" : 0.9173552989959717,
                "roughnessFactor" : 0.44214844703674316
            }
        },
        {
            "doubleSided" : true,
            "extensions" : {
                "KHR_materials_specular" : {
                    "specularColorFactor" : [
                        0.12015283379423979,
                        0.12015283379423979,
                        0.12015283379423979
                    ]
                },
                "KHR_materials_ior" : {
                    "ior" : 1.4500000476837158
                }
            },
            "name" : "TyreSurface.001",
            "pbrMetallicRoughness" : {
                "baseColorFactor" : [
                    0,
                    0,
                    0,
                    1
                ],
                "metallicFactor" : 0,
                "roughnessFactor" : 0.3512396812438965
            }
        },
        {
            "doubleSided" : true,
            "name" : "InsideWheel.001",
            "pbrMetallicRoughness" : {
                "baseColorFactor" : [
                    0.22254441678524017,
                    0.22254441678524017,
                    0.22254441678524017,
                    1
                ],
                "roughnessFactor" : 0.1818181872367859
            }
        },
        {
            "doubleSided" : true,
            "extensions" : {
                "KHR_materials_specular" : {
                    "specularColorFactor" : [
                        1.3424627221545076,
                        1.3424627221545076,
                        1.3424627221545076
                    ]
                },
                "KHR_materials_ior" : {
                    "ior" : 1.4500000476837158
                }
            },
            "name" : "WheelMetal.001",
            "pbrMetallicRoughness" : {
                "baseColorFactor" : [
                    0.14596299827098846,
                    0.14596299827098846,
                    0.14596299827098846,
                    1
                ],
                "metallicFactor" : 0.942148745059967,
                "roughnessFactor" : 0.21900828182697296
            }
        }
    ],
    "meshes" : [
        {
            "name" : "Cube",
            "primitives" : [
                {
                    "attributes" : {
                        "POSITION" : 0,
                        "NORMAL" : 1,
                        "TEXCOORD_0" : 2
                    },
                    "indices" : 3,
                    "material" : 0
                },
                {
                    "attributes" : {
                        "POSITION" : 4,
                        "NORMAL" : 5,
                        "TEXCOORD_0" : 6
                    },
                    "indices" : 7,
                    "material" : 1
                },
                {
                    "attributes" : {
                        "POSITION" : 8,
                        "NORMAL" : 9,
                        "TEXCOORD_0" : 10
                    },
                    "indices" : 11,
                    "material" : 2
                },
                {
                    "attributes" : {
                        "POSITION" : 12,
                        "NORMAL" : 13,
                        "TEXCOORD_0" : 14
                    },
                    "indices" : 15,
                    "material" : 3
                }
            ]
        }
    ],
    "textures" : [
        {
            "sampler" : 0,
            "source" : 0
        }
    ],
    "images" : [
        {
            "mimeType" : "image/png",
            "name" : "uv",
            "uri" : "../../../../../../../../textures/uv.png"
        }
    ],
    "accessors" : [
        {
            "bufferView" : 0,
            "componentType" : 5126,
            "count" : 210193,
            "max" : [
                0.403456449508667,
                0.28857555985450745,
                0.2580345869064331
            ],
            "min" : [
                -0.40726765990257263,
                -0.10685690492391586,
                -1.959065556526184
            ],
            "type" : "VEC3"
        },
        {
            "bufferView" : 1,
            "componentType" : 5126,
            "count" : 210193,
            "type" : "VEC3"
        },
        {
            "bufferView" : 2,
            "componentType" : 5126,
            "count" : 210193,
            "type" : "VEC2"
        },
        {
            "bufferView" : 3,
            "componentType" : 5125,
            "count" : 315648,
            "type" : "SCALAR"
        },
        {
            "bufferView" : 4,
            "componentType" : 5126,
            "count" : 55756,
            "max" : [
                0.37791192531585693,
                0.13034529983997345,
                -0.10673834383487701
            ],
            "min" : [
                -0.37939438223838806,
                -0.1508781462907791,
                -2.0352540016174316
            ],
            "type" : "VEC3"
        },
        {
            "bufferView" : 5,
            "componentType" : 5126,
            "count" : 55756,
            "type" : "VEC3"
        },
        {
            "bufferView" : 6,
            "componentType" : 5126,
            "count" : 55756,
            "type" : "VEC2"
        },
        {
            "bufferView" : 7,
            "componentType" : 5123,
            "count" : 319488,
            "type" : "SCALAR"
        },
        {
            "bufferView" : 8,
            "componentType" : 5126,
            "count" : 9004,
            "max" : [
                0.36617952585220337,
                0.07905613631010056,
                -0.1680820882320404
            ],
            "min" : [
                -0.3565558195114136,
                -0.09016215801239014,
                -1.973717451095581
            ],
            "type" : "VEC3"
        },
        {
            "bufferView" : 9,
            "componentType" : 5126,
            "count" : 9004,
            "type" : "VEC3"
        },
        {
            "bufferView" : 10,
            "componentType" : 5126,
            "count" : 9004,
            "type" : "VEC2"
        },
        {
            "bufferView" : 11,
            "componentType" : 5123,
            "count" : 49152,
            "type" : "SCALAR"
        },
        {
            "bufferView" : 12,
            "componentType" : 5126,
            "count" : 26116,
            "max" : [
                0.3431324064731598,
                0.08795879036188126,
                -0.1553470343351364
            ],
            "min" : [
                -0.33350870013237,
                -0.10036877542734146,
                -1.9831939935684204
            ],
            "type" : "VEC3"
        },
        {
            "bufferView" : 13,
            "componentType" : 5126,
            "count" : 26116,
            "type" : "VEC3"
        },
        {
            "bufferView" : 14,
            "componentType" : 5126,
            "count" : 26116,
            "type" : "VEC2"
        },
        {
            "bufferView" : 15,
            "componentType" : 5123,
            "count" : 132096,
            "type" : "SCALAR"
        }
    ],
    "bufferViews" : [
        {
            "buffer" : 0,
            "byteLength" : 2522316,
            "byteOffset" : 0,
            "target" : 34962
        },
        {
            "buffer" : 0,
            "byteLength" : 2522316,
            "byteOffset" : 2522316,
            "target" : 34962
        },
        {
            "buffer" : 0,
            "byteLength" : 1681544,
            "byteOffset" : 5044632,
            "target" : 34962
        },
        {
            "buffer" : 0,
            "byteLength" : 1262592,
            "byteOffset" : 6726176,
            "target" : 34963
        },
        {
            "buffer" : 0,
            "byteLength" : 669072,
            "byteOffset" : 7988768,
            "target" : 34962
        },
        {
            "buffer" : 0,
            "byteLength" : 669072,
            "byteOffset" : 8657840,
            "target" : 34962
        },
        {
            "buffer" : 0,
            "byteLength" : 446048,
            "byteOffset" : 9326912,
            "target" : 34962
        },
        {
            "buffer" : 0,
            "byteLength" : 638976,
            "byteOffset" : 9772960,
            "target" : 34963
        },
        {
            "buffer" : 0,
            "byteLength" : 108048,
            "byteOffset" : 10411936,
            "target" : 34962
        },
        {
            "buffer" : 0,
            "byteLength" : 108048,
            "byteOffset" : 10519984,
            "target" : 34962
        },
        {
            "buffer" : 0,
            "byteLength" : 72032,
            "byteOffset" : 10628032,
            "target" : 34962
        },
        {
            "buffer" : 0,
            "byteLength" : 98304,
            "byteOffset" : 10700064,
            "target" : 34963
        },
        {
            "buffer" : 0,
            "byteLength" : 313392,
            "byteOffset" : 10798368,
            "target" : 34962
        },
        {
            "buffer" : 0,
            "byteLength" : 313392,
            "byteOffset" : 11111760,
            "target" : 34962
        },
        {
            "buffer" : 0,
            "byteLength" : 208928,
            "byteOffset" : 11425152,
            "target" : 34962
        },
        {
            "buffer" : 0,
            "byteLength" : 264192,
            "byteOffset" : 11634080,
            "target" : 34963
        }
    ],
    "samplers" : [
        {
            "magFilter" : 9729,
            "minFilter" : 9987
        }
    ],
    "buffers" : [
        {
            "byteLength" : 11898272,
            "uri" : "car.bin"
        }
    ]
}
